<svg xmlns="http://www.w3.org/2000/svg" viewBox="0 0 100 100" style="max-width:100%" height="100%">
    <path d="M 66.851562 15.003906 C 60.238749 14.84804 54.345547 19.128047 52.537109 25.576172 C 52.482109 25.772172 52.349031 26.205766 52.082031 26.884766 C 50.954031 29.756766 49.252297 32.405812 47.029297 34.757812 C 46.862297 34.934812 46.156656 35.693062 45.722656 36.164062 C 44.193656 36.834063 42.778688 37.773516 41.554688 38.978516 C 36.723687 43.787516 29.434562 56.646922 25.226562 66.419922 C 23.695563 68.907922 22.359031 71.109406 21.332031 72.816406 L 10.359375 76.025391 C 10.145375 76.087391 10 76.283859 10 76.505859 C 10 79.168859 10.864359 81.254078 12.568359 82.705078 C 14.817359 84.621078 18.022375 85.005859 20.234375 85.005859 C 21.639375 85.005859 22.642141 84.849031 22.744141 84.832031 C 22.887141 84.810031 23.013844 84.726516 23.089844 84.603516 L 27.191406 78 L 47.246094 78 L 48.857422 83.642578 C 48.043422 83.874578 47.591734 84.086469 47.552734 84.105469 C 47.060734 84.351469 46.862469 84.946453 47.105469 85.439453 C 47.349469 85.933453 47.948406 86.136484 48.441406 85.896484 C 48.459406 85.887484 50.334 85 54 85 C 57.666 85 59.539734 85.887531 59.552734 85.894531 C 59.695734 85.965531 59.848047 86 59.998047 86 C 60.365047 86 60.718531 85.798266 60.894531 85.447266 C 61.141531 84.953266 60.941266 84.352469 60.447266 84.105469 C 60.356266 84.061469 58.188 83 54 83 C 52.753 83 51.708313 83.099422 50.820312 83.232422 L 49.326172 78 L 51.464844 78 C 52.718844 78 53.962406 77.905328 55.191406 77.736328 L 55.830078 79.652344 C 55.035078 79.881344 54.591734 80.086469 54.552734 80.105469 C 54.060734 80.351469 53.862469 80.948406 54.105469 81.441406 C 54.349469 81.935406 54.948406 82.139437 55.441406 81.898438 C 55.459406 81.888438 57.334 81 61 81 C 64.666 81 66.539734 81.887531 66.552734 81.894531 C 66.695734 81.965531 66.848047 82 66.998047 82 C 67.365047 82 67.718531 81.798266 67.894531 81.447266 C 68.141531 80.953266 67.941266 80.352469 67.447266 80.105469 C 67.356266 80.061469 65.188 79 61 79 C 59.743 79 58.690828 79.099375 57.798828 79.234375 L 57.183594 77.390625 C 69.579594 74.764625 79.894344 63.923719 80.902344 51.386719 C 81.286344 46.608719 80.494422 41.805031 78.607422 37.457031 C 79.124422 36.676031 79.55425 35.852 79.90625 35 L 84 35 C 84 33.264 82.543469 31.244875 80.980469 30.046875 C 81.017469 29.082875 80.966547 28.109766 80.810547 27.134766 C 79.791547 20.771766 74.599594 15.820703 68.183594 15.095703 C 67.737344 15.045203 67.292417 15.014297 66.851562 15.003906 z M 66.810547 17.003906 C 67.190549 17.013335 67.572469 17.037906 67.957031 17.082031 C 73.484031 17.706031 77.958937 21.969219 78.835938 27.449219 C 78.920937 27.979219 78.959516 28.509109 78.978516 29.037109 C 78.848516 29.013109 78.720609 29 78.599609 29 L 78.599609 29.009766 C 78.569609 28.999766 78.53 29 78.5 29 C 77.67 29 77 29.67 77 30.5 C 77 30.68 77.029609 30.84 77.099609 31 L 77 31 C 75.9 31 75 31.9 75 33 C 75 34.06 75.840625 34.940234 76.890625 34.990234 C 76.920625 35.000234 76.96 35 77 35 L 77.701172 35 C 77.399172 35.611 77.058297 36.207484 76.654297 36.771484 C 76.445297 37.063484 76.407641 37.443531 76.556641 37.769531 C 78.468641 41.942531 79.282156 46.597516 78.910156 51.228516 C 77.830156 64.655516 65.262844 76 51.464844 76 L 21.757812 76 C 22.561812 74.652 23.865422 72.479078 25.482422 69.830078 C 34.945422 68.099078 55.350469 63.821813 60.980469 58.257812 C 64.668469 54.600812 65.943594 49.267797 64.308594 44.341797 C 64.221594 44.078797 63.938734 43.938391 63.677734 44.025391 C 63.415734 44.112391 63.272375 44.39425 63.359375 44.65625 C 64.874375 49.21925 63.692344 54.158875 60.277344 57.546875 C 60.113344 57.708875 59.933188 57.869297 59.742188 58.029297 C 56.019187 49.766297 48.310031 44.161922 39.332031 43.169922 C 40.369031 41.777922 41.360766 40.584453 42.259766 39.689453 C 44.676766 37.309453 47.873766 36 51.259766 36 C 54.658766 36 57.860391 37.3105 60.275391 39.6875 C 60.484391 39.8965 60.685953 40.111078 60.876953 40.330078 C 61.057953 40.538078 61.372031 40.557906 61.582031 40.378906 C 61.790031 40.196906 61.812859 39.879875 61.630859 39.671875 C 61.424859 39.435875 61.208469 39.205516 60.980469 38.978516 C 58.375469 36.412516 54.922766 35 51.259766 35 C 50.622766 35 49.994047 35.057578 49.373047 35.142578 C 51.341047 32.855578 52.876359 30.330234 53.943359 27.615234 C 54.165359 27.052234 54.349891 26.520188 54.462891 26.117188 C 56.021016 20.557813 61.110521 16.862476 66.810547 17.003906 z M 69 24 A 3 3 0 0 0 66 27 A 3 3 0 0 0 69 30 A 3 3 0 0 0 72 27 A 3 3 0 0 0 69 24 z M 62.302734 41.007812 C 62.238734 41.01925 62.175438 41.044281 62.117188 41.082031 C 61.886187 41.232031 61.820703 41.542438 61.970703 41.773438 C 62.182703 42.100437 62.379594 42.432438 62.558594 42.773438 C 62.647594 42.944437 62.821953 43.042969 63.001953 43.042969 C 63.080953 43.042969 63.158422 43.023375 63.232422 42.984375 C 63.476422 42.855375 63.570406 42.552594 63.441406 42.308594 C 63.249406 41.939594 63.039547 41.580516 62.810547 41.228516 C 62.697297 41.055266 62.494734 40.9735 62.302734 41.007812 z M 38.65625 44.101562 C 42.48325 44.434562 46.082375 45.637734 49.234375 47.552734 C 45.667375 48.996734 41.03225 50.435984 35.40625 51.833984 C 35.13925 51.899984 34.976969 52.171453 35.042969 52.439453 C 35.099969 52.666453 35.303344 52.818359 35.527344 52.818359 C 35.567344 52.818359 35.608438 52.814687 35.648438 52.804688 C 41.658437 51.310688 46.567813 49.767797 50.257812 48.216797 C 52.044812 49.428797 53.667984 50.875297 55.083984 52.529297 C 53.372984 53.763297 50.788187 55.021391 47.367188 56.275391 C 47.108187 56.371391 46.974312 56.658969 47.070312 56.917969 C 47.144312 57.120969 47.336063 57.246094 47.539062 57.246094 C 47.596063 57.246094 47.655891 57.236797 47.712891 57.216797 C 51.254891 55.917797 53.938563 54.601828 55.726562 53.298828 C 56.997563 54.913828 58.074734 56.706484 58.927734 58.646484 C 51.853734 63.608484 32.610875 67.504703 25.296875 68.845703 C 26.088875 66.880703 27.04175 64.737297 28.09375 62.529297 C 33.10075 61.476297 37.642797 60.357078 41.591797 59.205078 C 41.856797 59.128078 42.008641 58.852891 41.931641 58.587891 C 41.853641 58.322891 41.578547 58.166094 41.310547 58.246094 C 37.586547 59.333094 33.325578 60.389625 28.642578 61.390625 C 31.642578 55.233625 35.35325 48.724563 38.65625 44.101562 z M 45.613281 56.939453 C 45.548297 56.934609 45.480312 56.942844 45.414062 56.964844 C 44.744062 57.190844 44.059375 57.411859 43.359375 57.630859 C 43.096375 57.713859 42.94925 57.993812 43.03125 58.257812 C 43.10025 58.471812 43.296766 58.607422 43.509766 58.607422 C 43.558766 58.607422 43.609203 58.600937 43.658203 58.585938 C 44.364203 58.364938 45.057375 58.138156 45.734375 57.910156 C 45.996375 57.822156 46.136828 57.539344 46.048828 57.277344 C 45.982828 57.080844 45.808234 56.953984 45.613281 56.939453 z M 20.574219 74.080078 C 19.674219 75.583078 19.150672 76.472188 19.138672 76.492188 C 18.956672 76.802188 18.953813 77.184094 19.132812 77.496094 C 19.311812 77.808094 19.641 78 20 78 L 26.013672 78 L 22.365234 83.876953 C 21.248234 84.013953 16.173844 84.465406 13.214844 81.941406 C 11.823844 80.755406 11.081859 79.053906 11.005859 76.878906 L 20.574219 74.080078 z" style="" fill="currentColor"/>
</svg>