<svg xmlns="http://www.w3.org/2000/svg" viewBox="0 0 100 100" style="max-width:100%" height="100%">
    <path style="line-height:normal;text-indent:0;text-align:start;text-decoration-line:none;text-decoration-style:solid;text-decoration-color:#000;text-transform:none;block-progression:tb;isolation:auto;mix-blend-mode:normal" d="M 41.160156 25 C 24.022361 25 10 39.139242 10 56.400391 L 10 58.300781 A 1.0001 1.0001 0 0 0 10.025391 58.523438 C 10.011045 58.67987 10 58.838268 10 59 C 10 61.615485 8.9366671 64.117401 7.5507812 66.099609 C 6.1648955 68.081817 4.434066 69.537205 3.296875 70.042969 A 0.50005 0.50005 0 0 0 3.5351562 70.998047 C 3.5759562 70.995247 3.6584106 70.957375 3.7011719 70.953125 L 3.703125 70.957031 C 3.706285 70.955631 3.7097206 70.950619 3.7128906 70.949219 C 5.1659287 70.801587 7.6823913 69.870051 10.265625 68.232422 C 10.969391 67.786273 11.669603 67.287349 12.339844 66.742188 L 12.109375 67.195312 A 1.0001 1.0001 0 0 0 12.041016 67.931641 L 12.394531 69.117188 C 12.406503 69.217392 12.423948 69.268377 12.445312 69.351562 C 12.477043 69.475101 12.521752 69.621306 12.582031 69.794922 C 12.702586 70.142154 12.88766 70.595426 13.162109 71.121094 C 13.711007 72.172429 14.61611 73.515238 16.052734 74.837891 C 18.925991 77.483195 23.918563 80 32.197266 80 C 34.813692 80 37 77.918259 37 75.337891 C 37 74.014936 36.342933 72.869458 35.404297 72.128906 C 34.465661 71.388354 33.256563 71 32 71 C 27.5379 71 25.079424 70.007537 23.652344 69 L 57.636719 69 C 57.097104 69.986124 56.546084 70.875388 56.037109 71.507812 A 1.0001 1.0001 0 0 0 56.029297 71.517578 C 54.413136 73.579964 54.900328 76.481452 56.943359 78.058594 A 1.0001 1.0001 0 0 0 56.957031 78.068359 C 57.866272 78.745916 58.86622 79 59.769531 79 C 61.208458 79 62.57989 78.305863 63.501953 77.160156 A 1.0001 1.0001 0 0 0 63.578125 77.050781 C 63.635505 76.955921 64.147889 76.22703 64.773438 75.273438 C 65.398983 74.319845 66.181805 73.062956 66.951172 71.617188 C 67.374658 70.821387 67.791422 69.964412 68.179688 69.072266 C 78.05571 66.74759 84.772627 60.304641 88.974609 53.287109 C 93.249806 46.147308 94.99677 38.442914 94.994141 33.5 C 94.993731 32.475493 94.363825 31.650984 93.626953 31.097656 C 92.890082 30.544328 91.991579 30.161561 91.052734 29.859375 C 89.175046 29.255003 87.166045 28.998832 85.998047 29 C 84.096864 29.0021 82.226859 29.292186 80.662109 30.4375 C 79.09736 31.582814 77.964611 33.515399 77.34375 36.439453 L 77.34375 36.431641 C 76.167185 41.738122 73.981573 44.864534 70.791016 46.859375 C 66.740673 34.17714 54.993073 25 41.160156 25 z M 41.160156 27 C 43.541187 27 45.852174 27.295357 48.066406 27.84375 L 46.121094 32.125 L 45.289062 32.513672 A 0.50005 0.50005 0 1 0 45.710938 33.419922 L 46.40625 33.095703 L 59.244141 44.972656 L 58.1875 45.814453 A 0.50100697 0.50100697 0 1 0 58.8125 46.597656 L 59.859375 45.759766 L 63.974609 53.179688 C 61.668615 55.425788 59.06984 57.447355 56.234375 59.21875 L 53.966797 53.320312 A 0.50005 0.50005 0 0 0 53.507812 52.992188 A 0.50005 0.50005 0 0 0 53.457031 52.994141 A 0.50005 0.50005 0 0 0 53.033203 53.679688 L 55.369141 59.753906 C 53.555017 60.835519 51.647655 61.814481 49.660156 62.681641 L 48.558594 63 L 43.439453 63 L 42.591797 55.308594 L 52.677734 51.466797 A 0.50005 0.50005 0 0 0 52.8125 51.390625 L 56.8125 48.195312 A 0.50005 0.50005 0 0 0 56.496094 47.298828 A 0.50005 0.50005 0 0 0 56.1875 47.414062 L 52.248047 50.560547 L 42.472656 54.285156 L 39.994141 38.421875 A 0.50005 0.50005 0 0 0 39.513672 37.992188 A 0.50005 0.50005 0 0 0 39.464844 37.994141 A 0.50005 0.50005 0 0 0 39.005859 38.578125 L 41.490234 54.474609 L 31.78125 54.001953 L 21.765625 52.603516 L 22.730469 50.728516 A 0.50005 0.50005 0 0 0 22.269531 49.994141 A 0.50005 0.50005 0 0 0 21.841797 50.271484 L 20.785156 52.326172 L 13.121094 48.369141 C 15.035293 41.617982 19.303037 35.854447 24.951172 32.015625 L 29.371094 35.630859 L 24.412109 45.271484 A 0.50005 0.50005 0 1 0 25.300781 45.728516 L 30.296875 36.017578 L 38.972656 36.5 A 0.50005 0.50005 0 0 0 39.210938 36.453125 L 43.710938 34.353516 A 0.50005 0.50005 0 1 0 43.289062 33.447266 L 38.902344 35.494141 L 30.191406 35.009766 L 25.830078 31.441406 C 30.292143 28.637129 35.542071 27 41.160156 27 z M 49.039062 28.121094 C 55.495551 29.966266 61.046308 34.002614 64.849609 39.412109 L 59.994141 44.304688 L 47.105469 32.376953 L 49.039062 28.121094 z M 86.001953 31 C 86.833955 30.999168 88.820392 31.242544 90.439453 31.763672 C 91.248984 32.024236 91.976184 32.359656 92.425781 32.697266 C 92.875378 33.034875 92.99405 33.274507 92.994141 33.5 C 92.996541 37.957086 91.327117 45.463817 87.257812 52.259766 C 83.452928 58.614123 77.608088 64.361703 69.0625 66.785156 C 69.62598 65.076293 70 63.282498 70 61.5 C 70 60.744694 69.91974 60.017334 69.611328 59.333984 C 69.302921 58.650635 68.752095 58.059251 68.021484 57.638672 C 66.945149 57.019075 65.494187 56.669898 63.410156 56.441406 C 65.796699 54.381366 67.939741 52.109693 69.792969 49.652344 C 74.477307 47.505372 77.8115 43.564498 79.296875 36.865234 A 1.0001 1.0001 0 0 0 79.298828 36.855469 C 79.85592 34.231546 80.7635 32.84342 81.84375 32.052734 C 82.924 31.262048 84.303136 31.001888 86.001953 31 z M 85.5 33 C 83.577273 33 82 34.577273 82 36.5 C 82 38.422727 83.577273 40 85.5 40 C 87.422727 40 89 38.422727 89 36.5 C 89 34.577273 87.422727 33 85.5 33 z M 85.5 34 C 85.687966 34 85.868645 34.024836 86.044922 34.064453 C 85.406324 34.23505 85 34.763898 85 35.5 C 85 36.4 85.6 37 86.5 37 C 87.236102 37 87.76495 36.593676 87.935547 35.955078 C 87.975164 36.131355 88 36.312034 88 36.5 C 88 37.877273 86.877273 39 85.5 39 C 84.122727 39 83 37.877273 83 36.5 C 83 35.122727 84.122727 34 85.5 34 z M 65.408203 40.267578 C 66.856063 42.484863 68.036977 44.898623 68.861328 47.480469 C 67.624753 49.22697 66.232169 50.882283 64.707031 52.441406 L 60.628906 45.085938 L 65.408203 40.267578 z M 23.8125 46.994141 A 0.50005 0.50005 0 0 0 23.384766 47.271484 L 22.869141 48.271484 A 0.50005 0.50005 0 1 0 23.757812 48.728516 L 24.273438 47.728516 A 0.50005 0.50005 0 0 0 23.8125 46.994141 z M 12.855469 49.357422 L 20.433594 53.269531 L 18.783203 61.101562 L 12 57.683594 L 12 56.400391 C 12 53.97405 12.299642 51.616116 12.855469 49.357422 z M 21.392578 53.560547 L 30.955078 54.896484 L 30.101562 63 L 22.546875 63 L 19.707031 61.568359 L 21.392578 53.560547 z M 31.949219 55.011719 L 41.605469 55.482422 L 42.433594 63 L 31.109375 63 L 31.949219 55.011719 z M 61.160156 58.261719 C 64.320528 58.478922 66.177854 58.88433 67.023438 59.371094 C 67.463452 59.62439 67.65119 59.850756 67.789062 60.15625 C 67.926937 60.461744 68 60.895306 68 61.5 C 68 64.51096 66.646813 67.931772 65.185547 70.677734 C 64.454914 72.050715 63.704892 73.258014 63.101562 74.177734 C 62.532778 75.044797 62.165221 75.54653 61.9375 75.910156 C 61.383499 76.595035 60.544486 77 59.769531 77 C 59.200372 77 58.724285 76.884732 58.162109 76.46875 C 56.886747 75.479847 56.635305 73.985536 57.603516 72.75 C 59.205497 70.755824 60.986595 67.372105 61.953125 64.300781 A 1.0001 1.0001 0 0 0 61 63 L 53.650391 63 C 56.324512 61.619667 58.837806 60.031536 61.160156 58.261719 z M 10.980469 59.410156 L 15.027344 61.449219 L 13.753906 63.955078 C 12.628246 65.289129 11.20161 66.454095 9.7304688 67.386719 C 8.5035046 68.164538 7.2526724 68.763162 6.1601562 69.203125 C 6.9162541 68.497912 7.6789263 67.66187 8.3710938 66.671875 C 9.7744916 64.66462 10.877123 62.137281 10.980469 59.410156 z M 16.8125 62.349609 L 21.742188 64.833984 L 20.291016 67.541016 A 1.0001 1.0001 0 0 0 20.369141 68.609375 C 21.449466 70.065719 24.527427 73 32 73 C 32.834437 73 33.62545 73.274271 34.164062 73.699219 C 34.702676 74.124167 35 74.646846 35 75.337891 C 35 76.785522 33.762839 78 32.197266 78 C 24.318968 78 19.904704 75.665633 17.408203 73.367188 C 16.159953 72.217963 15.390493 71.066696 14.935547 70.195312 C 14.708074 69.759621 14.558785 69.392374 14.470703 69.138672 C 14.426663 69.011821 14.397953 68.912446 14.382812 68.853516 C 14.367673 68.794586 14.380859 68.650514 14.380859 68.929688 A 1.0001 1.0001 0 0 0 14.337891 68.644531 L 14.072266 67.746094 L 16.8125 62.349609 z M 23.923828 65 L 48.699219 65 L 59.496094 65 C 59.106317 66.011237 58.640739 67.031364 58.15625 68 L 22.507812 68 C 22.469486 67.95754 22.419975 67.910087 22.384766 67.869141 L 23.923828 65 z" fill="currentColor"/>
</svg>