<svg xmlns="http://www.w3.org/2000/svg" viewBox="0 0 100 100" style="max-width:100%" height="100%">
    <path d="M 73.951172 15.001953 A 1.0001 1.0001 0 0 0 73.865234 15.009766 C 68.262397 15.768739 63.974252 18.393374 61.162109 22.283203 C 58.409595 26.090552 57.077554 31.067293 57.021484 36.646484 C 56.694392 37.00863 55.900219 38.175814 55.320312 40.068359 C 39.636955 40.438784 27 53.228315 27 69 L 27 76 C 27 76.56503 26.56503 77 26 77 C 20.465466 77 16 72.534534 16 67 L 16 58.5 C 16 56.460558 14.208742 54.810548 12.142578 55.017578 C 10.287271 55.202966 9 56.854965 9 58.642578 L 9 66.5 C 9 76.1534 16.8466 84 26.5 84 L 64 84 A 1.0001 1.0001 0 0 0 65 83 C 65 80.250484 62.749516 78 60 78 L 55.501953 78 C 58.1743 76.409265 60.302097 74.04249 61.292969 71.041016 L 62.050781 73.316406 A 1.0001 1.0001 0 0 0 62.181641 73.574219 L 69.181641 83.574219 A 1.0001 1.0001 0 0 0 70 84 L 77 84 A 1.0001 1.0001 0 0 0 78 83 C 78 80.529184 76.150842 78.553972 73.787109 78.160156 L 70.095703 66.164062 C 70.763049 65.454977 75 60.798635 75 53 C 75 48.249197 73.417929 45.138108 73.078125 44.498047 L 73.677734 43 L 75.5 43 A 1.0001 1.0001 0 0 0 75.589844 42.996094 C 78.676162 42.715519 80.81468 40.924202 82.115234 39.171875 C 82.765512 38.295712 83.222053 37.423466 83.523438 36.707031 C 83.67413 36.348814 83.785016 36.028819 83.863281 35.757812 C 83.94155 35.486801 84 35.325595 84 35 C 84 34.34881 83.57619 33.953048 83.289062 33.730469 C 83.001936 33.507889 82.72273 33.351544 82.449219 33.173828 C 81.902197 32.818396 81.418633 32.43745 81.148438 31.806641 C 80.498788 30.290326 80.293352 29.034231 80.076172 27.787109 C 79.859085 26.540525 79.62727 25.269212 78.857422 23.986328 L 78.857422 23.984375 C 77.498271 21.719994 75.493043 20.542322 73.408203 20.169922 L 74.927734 16.371094 A 1.0001 1.0001 0 0 0 73.951172 15.001953 z M 72.367188 17.392578 L 71.072266 20.628906 A 1.0001 1.0001 0 0 0 72 22 C 73.977444 22 75.806914 22.787565 77.142578 25.013672 A 1.0001 1.0001 0 0 0 77.142578 25.015625 C 77.704932 25.952178 77.890899 26.898731 78.105469 28.130859 C 78.320038 29.362987 78.562197 30.847064 79.310547 32.59375 C 79.455701 32.932631 79.639349 33.219516 79.835938 33.480469 L 79.035156 33.658203 C 78.063156 33.874203 77.680781 34.788156 78.300781 35.410156 L 80.964844 37.275391 C 80.821016 37.509325 80.685355 37.741932 80.509766 37.978516 C 79.437377 39.423371 77.827875 40.776648 75.421875 41 L 73 41 A 1.0001 1.0001 0 0 0 72.072266 41.628906 L 71.072266 44.128906 A 1.0001 1.0001 0 0 0 71.130859 44.996094 C 71.130859 44.996094 73 48.266667 73 53 C 73 60.583333 68.292969 65.292969 68.292969 65.292969 A 1.0001 1.0001 0 0 0 68.044922 66.294922 L 72.044922 79.294922 A 1.0001 1.0001 0 0 0 73 80 C 74.275852 80 75.150803 80.887535 75.587891 82 L 70.521484 82 L 63.902344 72.544922 L 61.949219 66.683594 A 1.0001 1.0001 0 0 0 60.892578 66.005859 C 60.157605 60.366311 55.33798 56 49.5 56 C 48.221534 56 46.991234 56.209768 45.841797 56.595703 A 0.50005 0.50005 0 1 0 46.158203 57.542969 C 47.206766 57.190903 48.330466 57 49.5 57 C 55.221009 57 59.855476 61.563237 59.988281 67.251953 C 59.85363 73.22037 55.001453 78 49 78 A 1.0001 1.0001 0 0 0 49 80 L 60 80 C 61.275852 80 62.150803 80.887535 62.587891 82 L 26.5 82 C 17.9274 82 11 75.0726 11 66.5 L 11 65 L 14 65 L 14 67 C 14 73.615466 19.384534 79 26 79 C 27.64497 79 29 77.64497 29 76 L 29 69 C 29 54.076438 41.076438 42 56 42 A 1.0001 1.0001 0 0 0 56.980469 41.195312 C 57.420125 38.997031 58.707031 37.707031 58.707031 37.707031 A 1.0001 1.0001 0 0 0 59 37 C 59 31.587875 60.280596 26.916749 62.783203 23.455078 C 64.977773 20.419493 68.166653 18.344396 72.367188 17.392578 z M 73.230469 29 C 72.615094 29 72.154297 29.154297 72.154297 29.154297 C 72.154297 29.154297 71.538531 31.000469 72.769531 32.230469 C 74.000531 33.460469 75.845703 32.845703 75.845703 32.845703 C 75.845703 32.845703 76.461469 31.000531 75.230469 29.769531 C 74.614969 29.154531 73.845844 29 73.230469 29 z M 12.341797 57.007812 C 13.269633 56.914843 14 57.607442 14 58.5 L 14 64 L 11 64 L 11 58.642578 C 11 57.814191 11.595104 57.082424 12.341797 57.007812 z M 43.972656 57.46875 A 0.50005 0.50005 0 0 0 43.75 57.539062 C 43.202509 57.855205 42.685551 58.215547 42.201172 58.613281 A 0.50028347 0.50028347 0 1 0 42.835938 59.386719 C 43.279558 59.022453 43.751491 58.692155 44.25 58.404297 A 0.50005 0.50005 0 0 0 43.972656 57.46875 z M 40.992188 60.011719 A 0.50005 0.50005 0 0 0 40.613281 60.199219 C 40.343034 60.527076 40.093885 60.87095 39.861328 61.226562 A 0.50005 0.50005 0 1 0 40.697266 61.773438 C 40.910709 61.447051 41.140966 61.134079 41.386719 60.835938 A 0.50005 0.50005 0 0 0 40.992188 60.011719 z" style="" fill="currentColor"/>
</svg>