<svg xmlns="http://www.w3.org/2000/svg" viewBox="0 0 100 100" style="max-width:100%" height="100%">
    <path style="line-height:normal;text-indent:0;text-align:start;text-decoration-line:none;text-decoration-style:solid;text-decoration-color:#000;text-transform:none;block-progression:tb;isolation:auto;mix-blend-mode:normal" d="M 40.501953 18 C 27.975612 18 21.259766 25.328125 21.259766 25.328125 A 1.0001 1.0001 0 0 0 21.455078 26.837891 C 21.455078 26.837891 26.935457 30.495999 27 36.011719 C 27.031378 38.65846 26.261867 42.218137 22.648438 45.912109 C 21.644713 45.80569 20.676913 45.314735 19.746094 44.408203 C 18.705123 43.394394 17.757906 41.971285 16.984375 40.527344 C 15.437312 37.639462 14.585935 34.720703 14.585938 34.720703 A 1.0001 1.0001 0 0 0 12.875 34.339844 C 12.875 34.339844 7 40.958809 7 50.089844 C 7 59.220878 12.884766 65.671875 12.884766 65.671875 A 1.0001 1.0001 0 0 0 14.578125 65.302734 C 14.578125 65.302734 15.426836 62.63898 16.966797 60.003906 C 17.736777 58.686369 18.677868 57.390602 19.714844 56.464844 C 20.630897 55.647039 21.59387 55.192636 22.605469 55.085938 C 24.068425 56.884664 25 60.406233 25 63 C 25 67.858116 21.326172 71.261719 21.326172 71.261719 A 1.0001 1.0001 0 0 0 21.191406 72.587891 C 21.191406 72.587891 26.690766 80 38.667969 80 C 58.156874 80 68.990017 71.983957 69.513672 71.587891 C 81.642865 65.258514 88.160491 54.377302 88.273438 54.1875 C 89.265326 53.036708 89.234389 51.287407 88.158203 50.189453 A 1.0001 1.0001 0 0 0 87.847656 49.972656 C 87.847656 49.972656 80.894917 46.911093 77.523438 39.195312 C 75.861551 34.887068 73.180469 30.995444 69.494141 28.224609 A 1.0001493 1.0001493 0 0 0 69.386719 28.109375 C 69.386719 28.109375 58.32326 18 40.501953 18 z M 40.501953 20 C 48.318249 20 54.728518 22.010582 59.404297 24.189453 C 58.732718 24.106307 58.04711 24.045625 57.341797 24.019531 C 56.730028 23.996811 56.126715 23.993962 55.533203 24.009766 C 46.630528 24.246821 39.768124 28.691605 34.513672 33.558594 C 32.206061 35.696041 30.260724 37.868475 28.503906 39.869141 C 28.883341 38.460358 29.013708 37.144434 29 35.988281 C 28.932046 30.18101 24.822408 26.968788 23.470703 25.992188 C 25.102449 24.468846 30.659683 20 40.501953 20 z M 55.583984 26.007812 C 56.13632 25.993387 56.697972 25.996424 57.267578 26.017578 C 61.533568 26.175403 65.076859 27.466308 67.957031 29.517578 C 67.96554 29.525242 68.035156 29.583984 68.035156 29.583984 A 1.0001493 1.0001493 0 0 0 68.224609 29.71875 C 71.64224 32.247135 74.102336 35.860795 75.673828 39.953125 A 1.0001 1.0001 0 0 0 75.691406 39.996094 C 75.94415 40.574508 76.218557 41.120913 76.501953 41.650391 C 75.519525 41.258208 74.397933 41 73.115234 41 C 71.2801 41 69.694619 41.847442 68.429688 43.005859 C 67.164755 44.164277 66.171031 45.643312 65.380859 47.099609 C 63.800516 50.012205 63.033203 52.894531 63.033203 52.894531 A 1.0001 1.0001 0 0 0 63.158203 53.693359 C 63.158203 53.693359 64.676788 56.058294 66.371094 59.201172 C 67.980499 62.186561 69.724669 65.87996 70.458984 68.759766 C 65.399619 71.748171 59.219529 73.973133 52 73.996094 L 52 70.5 A 0.50005 0.50005 0 0 0 51.492188 69.992188 A 0.50005 0.50005 0 0 0 51 70.5 L 51 73.96875 C 48.070049 73.830093 45.417637 73.019595 43 71.775391 L 43 58.5 A 0.50005 0.50005 0 0 0 42.492188 57.992188 A 0.50005 0.50005 0 0 0 42 58.5 L 42 71.232422 C 39.254071 69.646457 36.815106 67.526295 34.615234 65.257812 C 34.403212 65.039177 34.206701 64.816247 34 64.595703 L 34 56.5 A 0.50005 0.50005 0 0 0 33.492188 55.992188 A 0.50005 0.50005 0 0 0 33 56.5 L 33 63.519531 C 29.526054 59.63351 26.789634 55.719399 24.146484 53.636719 L 24.150391 53.630859 L 22.855469 52.443359 C 21.710837 51.393339 21.710837 49.606661 22.855469 48.556641 L 24.027344 47.482422 C 25.502563 46.342569 27.033429 44.568869 28.849609 42.488281 C 30.856234 40.189524 33.169343 37.527913 35.871094 35.025391 C 40.936875 30.33316 47.298955 26.224191 55.583984 26.007812 z M 13.335938 37.25 C 13.766498 38.405622 14.395076 39.931468 15.220703 41.472656 C 16.054297 43.028715 17.082252 44.605606 18.351562 45.841797 C 19.404474 46.867234 20.664899 47.665982 22.097656 47.912109 C 20.654742 49.329434 20.654828 51.665345 22.095703 53.083984 C 20.685896 53.308285 19.435524 54.032851 18.382812 54.972656 C 17.109507 56.109398 16.075426 57.563631 15.238281 58.996094 C 14.419395 60.397314 13.801249 61.776524 13.369141 62.835938 C 12.830389 62.141921 12.00778 60.991647 11.21875 59.443359 C 12.206831 57.280429 13.604282 54.812354 15.324219 53.34375 A 0.50005 0.50005 0 0 0 14.980469 52.458984 A 0.50005 0.50005 0 0 0 14.675781 52.582031 C 12.971213 54.037512 11.636389 56.226441 10.652344 58.253906 C 9.7428616 56.134308 9 53.409495 9 50.089844 C 9 47.001155 9.6476247 44.428818 10.46875 42.353516 C 11.727238 45.058865 13.606111 48.17079 16.216797 49.449219 A 0.50007744 0.50007744 0 1 0 16.65625 48.550781 C 14.240578 47.36785 12.234264 43.886081 11.007812 41.107422 C 11.839392 39.351299 12.742745 38.039039 13.335938 37.25 z M 51.492188 41.992188 A 0.50005 0.50005 0 0 0 51 42.5 L 51 67.5 A 0.50005 0.50005 0 1 0 52 67.5 L 52 42.5 A 0.50005 0.50005 0 0 0 51.492188 41.992188 z M 73.115234 43 C 76.935028 43 78.510699 45.662566 80.519531 47.091797 C 80.89716 47.473764 81.27283 47.82701 81.642578 48.15625 C 81.054488 48.77355 80.067729 49.935996 79.058594 51.828125 C 77.576687 54.6067 76.121497 58.874203 76.019531 64.853516 C 74.844499 65.812217 73.597399 66.756308 72.236328 67.652344 C 71.35776 64.575605 69.673888 61.110591 68.132812 58.251953 C 66.529969 55.278735 65.296396 53.362398 65.087891 53.035156 C 65.232651 52.529022 65.855358 50.4179 67.138672 48.052734 C 67.861375 46.720782 68.762713 45.413239 69.78125 44.480469 C 70.799787 43.547699 71.886868 43 73.115234 43 z M 42.492188 46.992188 A 0.50005 0.50005 0 0 0 42 47.5 L 42 49.5 A 0.50005 0.50005 0 1 0 43 49.5 L 43 47.5 A 0.50005 0.50005 0 0 0 42.492188 46.992188 z M 75 48 A 2 2 0 0 0 73 50 A 2 2 0 0 0 75 52 A 2 2 0 0 0 77 50 A 2 2 0 0 0 75 48 z M 82.396484 48.804688 C 84.632228 50.638413 86.484766 51.496381 86.738281 51.611328 C 87.082237 51.980831 87.087445 52.564028 86.728516 52.931641 A 1.0001 1.0001 0 0 0 86.583984 53.119141 C 86.584002 53.11914 83.267829 58.636408 77.044922 64 C 77.263138 58.637592 78.60086 54.810398 79.941406 52.296875 C 80.937586 50.429039 81.876083 49.340771 82.396484 48.804688 z M 33.492188 48.992188 A 0.50005 0.50005 0 0 0 33 49.5 L 33 53.5 A 0.50005 0.50005 0 1 0 34 53.5 L 34 49.5 A 0.50005 0.50005 0 0 0 33.492188 48.992188 z M 42.492188 50.992188 A 0.50005 0.50005 0 0 0 42 51.5 L 42 55.5 A 0.50005 0.50005 0 1 0 43 55.5 L 43 51.5 A 0.50005 0.50005 0 0 0 42.492188 50.992188 z M 18.5 51 C 17.92127 51 17.363609 51.10383 16.833984 51.291016 A 0.50005 0.50005 0 1 0 17.166016 52.234375 C 17.598391 52.081561 18.04073 52 18.5 52 A 0.50005 0.50005 0 1 0 18.5 51 z M 26.576172 59.123047 C 28.450635 61.332696 30.639259 64.030731 33.179688 66.650391 C 37.883741 71.501156 43.945502 76 51.888672 76 C 53.027015 76 54.132204 75.933719 55.220703 75.835938 C 50.776168 77.063648 45.261174 78 38.667969 78 C 29.002026 78 24.417893 73.29583 23.296875 71.966797 C 24.210713 71.041985 27 68.009791 27 63 C 27 61.788714 26.866893 60.448525 26.576172 59.123047 z" fill="currentColor"/>
</svg>