<svg xmlns="http://www.w3.org/2000/svg" xmlns:xlink="http://www.w3.org/1999/xlink" version="1.1" x="0px" y="0px" viewBox="0 0 100 100" style="enable-background:new 0 0 100 100;max-width:100%" xml:space="preserve" height="100%"><style type="text/css" style="" fill="currentColor">
	.st0{fill:none;}
	.st1{fill:none;stroke:#000000;stroke-width:0;stroke-linecap:round;stroke-linejoin:round;}
</style><path class="st0" d="M85.2,10.1c0-0.1-0.1-0.1-0.1-0.2c0,0,0,0,0,0c-0.1,0-0.1-0.1-0.2-0.1c-0.1-0.1-0.2-0.1-0.3-0.1  c-0.1,0-0.1,0-0.2-0.1l0,0l-0.1,0c0,0,0,0,0,0c0,0,0,0,0,0l0,0l0,0c0,0-0.1,0-0.1,0l0,0h0c0,0,0,0,0,0c0,0,0,0,0,0l0,0  c0,0-0.1,0-0.1,0c0,0-0.1,0-0.1,0c0,0,0,0-0.1,0c0,0,0,0,0,0l0,0l0,0l0,0l0,0c0,0,0,0,0,0c0,0-0.1,0.1-0.1,0.1  c-0.1,0.1-0.1,0.2-0.2,0.2l0,0l0,0l0,0l0,0l0,0.1c0,0-0.1,0.1-0.1,0.1c0,0.1-0.1,0.1-0.1,0.2l0,0c0,0.1-0.1,0.1-0.1,0.2  c0,0.1-0.1,0.2-0.1,0.2c0,0.1,0,0.1,0,0.2l0,0c0,0,0,0.1,0,0.1c0,0,0,0,0,0c0,0,0,0.1,0,0.2l0,0l0,0.1l0,0c0,0,0,0,0,0.1l0,0  c0,0,0,0,0,0c0,0,0,0.1,0,0.1c0,0,0,0.1,0,0.1l0,0l0,0.1l0,0.1c0,0,0,0,0,0l0,0.1c0,0,0,0,0,0l0,0c0,0,0,0,0,0.1c0,0,0,0,0,0.1  c0,0,0,0,0,0c0,0,0,0,0,0c0,0,0,0,0,0.1c0,0,0,0,0.1,0c0,0,0,0,0,0c0,0,0.1,0,0.1,0c0,0,0,0,0.1,0l0,0l0,0l0,0l0,0c0,0,0.1,0,0.1,0  c0,0,0.1,0,0.1,0c0.2,0,0.3-0.1,0.5-0.1c0.2-0.1,0.3-0.2,0.5-0.3c0.2-0.1,0.4-0.3,0.5-0.5c0.1-0.2,0.2-0.4,0.3-0.6l0-0.1l0-0.1l0,0  l0,0c0-0.1,0.1-0.2,0.1-0.3l0,0l0-0.1c0,0,0,0,0,0c0,0,0,0,0,0c0,0,0,0,0-0.1l0,0l0-0.1l0,0l0,0c0,0,0-0.1,0-0.1L85.2,10.1  L85.2,10.1L85.2,10.1z" style="" fill="currentColor"/><path d="M30.9,60.6c0,0.1,0,0.1,0,0.2c0,0,0,0.1,0,0.1c0,0.1,0,0.2,0,0.2c0,0,0,0.1,0,0.1c0,0,0,0,0,0c0,0,0-0.1,0-0.1  c0-0.1,0-0.1,0-0.2c0,0,0-0.1,0-0.1c0-0.3,0-0.6,0-0.9c0,0.1,0,0.3,0,0.4C30.9,60.4,30.9,60.5,30.9,60.6z" style="" fill="currentColor"/><path d="M31,60C31,60,31.1,60,31,60C31.1,60,31.1,60,31,60C31.1,60,31.1,60,31,60C31,60,31,59.9,31,60C31,59.9,31,60,31,60z" style="" fill="currentColor"/><path d="M30.7,62.5C30.7,62.5,30.7,62.5,30.7,62.5c0,0.1,0,0.1,0,0.1c0,0.1,0,0.2,0,0.3c0,0,0,0.1,0,0.1c0-0.1,0-0.2,0.1-0.2  c0,0,0,0,0,0c0-0.1,0-0.1,0-0.2C30.7,62.6,30.7,62.6,30.7,62.5C30.7,62.5,30.7,62.5,30.7,62.5z" style="" fill="currentColor"/><path d="M17.2,75.8C17.2,75.9,17.1,75.9,17.2,75.8C17.1,75.9,17.1,75.9,17.2,75.8C17.2,75.9,17.2,75.9,17.2,75.8  C17.2,75.8,17.2,75.8,17.2,75.8z" style="" fill="currentColor"/><path d="M87.7,65.5C87.7,65.5,87.7,65.5,87.7,65.5C87.7,65.5,87.7,65.5,87.7,65.5C87.7,65.5,87.7,65.5,87.7,65.5  C87.7,65.5,87.7,65.4,87.7,65.5C87.7,65.4,87.7,65.5,87.7,65.5C87.7,65.5,87.7,65.5,87.7,65.5C87.7,65.5,87.7,65.5,87.7,65.5z" style="" fill="currentColor"/><polygon points="87.8,65.6 87.8,65.6 87.8,65.6 " style="" fill="currentColor"/><path d="M96.6,68.2C96.6,68.2,96.6,68.2,96.6,68.2c0-0.1,0-0.1,0-0.1c0,0,0,0,0-0.1c0,0,0-0.1,0-0.1c0,0,0,0,0,0c0,0,0,0,0,0  c0,0,0,0,0,0c0,0,0,0.1,0,0.1c0,0,0,0,0,0.1c0,0.1,0,0.2,0,0.3c0,0,0,0,0,0c0,0,0,0,0,0c0,0,0,0,0,0C96.6,68.3,96.6,68.3,96.6,68.2  C96.6,68.2,96.6,68.2,96.6,68.2C96.6,68.2,96.6,68.2,96.6,68.2z" style="" fill="currentColor"/><polygon points="96.8,68.6 96.8,68.6 96.8,68.6 96.8,68.6 96.8,68.6 " style="" fill="currentColor"/><path d="M31.1,62.6C31.1,62.6,31.1,62.6,31.1,62.6c0-0.1,0-0.2,0-0.2c0-0.1,0-0.1,0-0.2c0,0,0,0,0-0.1c0-0.1,0-0.1,0-0.2  c0,0,0,0,0,0c0,0.1,0,0.1,0,0.2c0,0,0,0,0,0.1c0,0,0,0.1,0,0.1c0,0,0,0,0,0c0,0,0,0.1,0,0.1c0,0,0,0,0,0  C31.1,62.5,31.1,62.6,31.1,62.6c-0.1,0.1-0.1,0.1-0.1,0.1c0,0.1,0,0.2,0,0.3c0,0,0,0,0,0c0,0,0,0,0,0c0,0.1,0,0.1,0,0.2  c0,0.1,0,0.2,0,0.2c0,0,0,0,0,0.1c0,0,0,0.1,0,0.1c0,0,0,0.1,0,0.1c0,0,0,0,0,0.1c0,0,0,0.1,0,0.1c0,0,0,0,0,0c0,0,0,0,0,0  c0-0.1,0-0.3,0-0.4c0,0,0,0,0,0c0,0,0-0.1,0-0.1c0-0.1,0-0.2,0-0.3c0-0.1,0-0.1,0-0.2C31.1,62.8,31.1,62.7,31.1,62.6z" style="" fill="currentColor"/><path d="M31.1,61.7c0-0.1,0-0.1,0-0.2c0,0,0-0.1,0-0.1c0,0,0,0,0,0c0-0.1,0-0.1,0-0.2c0,0.1,0,0.1,0,0.2  C31.1,61.5,31.1,61.6,31.1,61.7c0,0.2,0,0.2,0,0.3C31.1,61.9,31.1,61.9,31.1,61.7C31.1,61.8,31.1,61.7,31.1,61.7z" style="" fill="currentColor"/><path d="M86.6,20.7C86.6,20.7,86.7,20.7,86.6,20.7C86.7,20.7,86.7,20.7,86.6,20.7C86.7,20.7,86.7,20.7,86.6,20.7  C86.7,20.7,86.6,20.7,86.6,20.7C86.6,20.7,86.6,20.7,86.6,20.7z" style="" fill="currentColor"/><path d="M87.4,20.8C87.5,20.9,87.5,20.9,87.4,20.8C87.5,20.9,87.5,20.9,87.4,20.8C87.5,20.9,87.5,20.9,87.4,20.8  C87.5,20.9,87.5,20.9,87.4,20.8C87.5,20.8,87.5,20.8,87.4,20.8C87.4,20.8,87.4,20.8,87.4,20.8z" style="" fill="currentColor"/><polygon points="75.7,21.8 75.7,21.8 75.7,21.8 " style="" fill="currentColor"/><line class="st1" x1="75.7" y1="21.8" x2="75.7" y2="21.8" style="" fill="currentColor"/><path d="M22.8,78.2c-0.2-0.2-0.3-0.4-0.5-0.5c-0.3-0.3-0.5-0.6-0.7-1c-0.2-0.3-0.4-0.7-0.7-1c-0.4-0.4-0.9,0-1.3,0.2  c-0.5,0.2-1,0.4-1.5,0.6c-0.6,0.2-1.1,0.5-1.7,0.7c-0.5,0.2-1.4,0.3-1.3,1c0.2,1.2,0.5,2.4,0.9,3.6c0.1,0.4,0.3,0.7,0.5,1  c0.3,0.3,0.7,0.6,1.2,0.7c1.1,0.3,2.2,0.2,3.3,0c0.7-0.1,1.4-0.3,2-0.7c0.6-0.4,1.1-1,1.1-1.7c0.1-0.6-0.2-1.3-0.6-1.8  C23.3,78.8,23.1,78.5,22.8,78.2z M20.5,75.6C20.5,75.7,20.5,75.7,20.5,75.6C20.5,75.7,20.5,75.7,20.5,75.6  C20.5,75.7,20.5,75.7,20.5,75.6z M13.8,64.3c0,1-3.2,2.3-4.4,3c-0.7,0.4-1.3-2.6-1.3-3.1c0-0.4,0-0.9,0.2-1.3  c0.2-0.4,0.5-0.6,0.8-0.9c1.1-0.9,2.2-1.8,3.2-2.7c0.4-0.3,1-0.9,1.4-0.5c0.2,0.3,0.1,1.3,0.1,1.6C13.9,62.1,13.8,64,13.8,64.3z   M69.2,65.7C69.2,65.7,69.3,65.7,69.2,65.7C69.3,65.7,69.3,65.7,69.2,65.7c0,0.1,0,0.2,0,0.3c-0.2,0.2-0.4,0.4-0.6,0.7  c0,0-0.1,0.1-0.1,0.1c0,0-0.1,0.1-0.1,0.2c-0.1,0.1-0.1,0.2-0.2,0.3c-2.6,3.9-4.9,8.4-5.7,13.1c-0.3,1.7-0.1,3.3,1,4.7  c1.2,1.5,3.4,2.5,3.9,4.5c0.6,2.5-2.2,2.8-4,2.9c-1.1,0-2.2-0.1-3.3-0.4c-1-0.3-1.7-0.7-2.4-1.4c-0.3-0.2-0.5-0.4-0.8-0.6  c-0.4-0.3-0.7-0.7-1-1c-0.2-0.3-0.6-0.7-0.7-1.2c-0.1-0.6,0.2-1.5,0.3-2.1c0.2-1.5,0.4-2.9,0.6-4.4c0.2-1.6,0.4-3.2,0.5-4.7  c0.1-2.1-0.2-4.2-0.4-6.3c-0.1-1.1-0.2-2.1-0.2-3.2c0-0.9,0.1-1.1,1-1.4c0.3-0.1,0.7-0.2,1-0.3c1.2-0.5,2.4-1,3.7-1.5c0,0,0,0,0,0  l0,0l0,0c0,0,0,0,0,0l0,0c0,0,0,0,0,0c0,0,0,0,0,0l0,0l0,0l0,0c0,0,0,0,0,0c0,0,0,0,0,0c0,0,0,0,0,0c0,0,0,0,0,0l0,0l0,0l0.1,0l0,0  l0.1,0l0,0l0,0l0.1,0C64.5,65.1,67,65.7,69.2,65.7z M98.3,11.4c-0.2-0.9-1-0.9-1.7-1.1c-1-0.3-1.5-0.5-2.5-0.7c-2-0.4-4-0.7-6.1-0.8  c-0.4,0-0.8,0-1.2-0.2c-0.5-0.2-0.7-0.5-1-0.9c-0.3-0.5-0.7-0.9-1.2-1.3c-0.9-0.7-1.9-1.3-3-1.6c-1-0.3-2.1-0.5-3.2-0.7  c-0.7-0.1-1.5-0.2-2.2-0.2c-0.5,0-1,0.1-1.6,0.2c-1.2,0.4-2.3,1-3.4,1.7c-2.1,1.4-4.6,3.7-6,5.8c-0.5,0.7-1,1.7-0.8,2.6  c0.2,0.9,1.1,1.6,1.8,2.3c1.7,1.7,3,3.7,4.8,5.3c0.8,0.7,1.6,1.2,2.7,0.9c1-0.2,1.8-1,2.4-1.9c1.8-2.7,1.6-7.3,2.7-10.2  c-0.4,2.9-0.2,4.4-0.9,7.9c-0.2,0.9-1.4,3.4-2.1,4c-0.7,0.6-2.1,1.4-3,1.4c-1.3,0-2.4-1-3.3-2c-0.5-0.6-0.9-1.2-1.4-1.8  c-0.4-0.5-1.2-1.9-2-1.4c-0.2,0.1-0.3,0.3-0.5,0.4c-0.4,0.5-0.8,1-1.2,1.6c-1.5,1.9-2.8,4-4.5,5.7c-3,2.9-6.3,5.7-10.2,7.2  C45,35.6,40.1,37.6,35,39c-1.7,0.5-3.4,1-5.2,1.4c-1.9,0.4-3.8,0.7-5.6,1.1c-1.1,0.2-2.2,0.5-3.3,0.9c-1.1,0.4-2,1.3-3.2,1.5  c-4.4,0.6-8.9,0.7-13.2,2.1c-0.8,0.2-1.5,0.5-2.2,1c-0.7,0.5-1.4,1.5-1.2,2.4c0.2,1,1.2,1.5,2.1,1.7c0.8,0.2,1.6,0.2,2.4,0.2  c2.9,0,5.7-0.3,8.6-0.7l0.1,0c0,0,0,0.1,0,0.1c-0.4,2.2-0.1,4.6,0.1,6.8c0.2,2.1,0.4,4.3,0.3,6.4c0,0.5,0,1.1-0.2,1.6  c-0.1,0.4-0.7,0.6-1,0.8c-1,0.6-1.9,1.1-2.9,1.7c-0.4,0.2-0.8,0.5-1.2,0.6c-0.4,0.2-0.9,0.3-1.3,0.6c-0.8,0.4-1.5,1.2-1.6,2  c-0.1,0.5,0,1-0.1,1.5c-0.1,1.9-0.3,3.7-0.1,5.6c0.2,2,0.5,3.9,0.8,5.9c0.2,1.4,0.4,2.8,1.1,4c0.1,0.2,0.2,0.3,0.3,0.4  c0.8,1.1,2.1,2,3.4,2.5c1.2,0.4,2.6,0.5,3.9,0.4c0.7-0.1,1.4-0.2,1.9-0.6c0.7-0.5,1.1-1.4,1.1-2.3c0-1.8-1.6-2.6-2.6-3.8  c-0.3-0.4-0.5-0.9-0.7-1.3c-0.5-1.1-0.9-2.1-1.2-3.3c-0.2-0.7-0.3-1.3-0.4-2c0-0.3-0.1-0.7,0-1c0.2-0.3,1-0.4,1.4-0.6  c2.2-0.8,4.3-1.8,6.3-3c1.9-1.2,3.7-2.5,5.2-4.1c1.3-1.4,2.5-2.9,3.2-4.6c0.4-0.9,0.6-1.8,0.7-2.8c0.1-0.9,0.1-2,0.2-2.9  c0,0,0,0.1,0,0.1l0,0c0,0,0,0,0-0.1c0,0,0,0,0,0c0,0.1,0,0.3,0,0.4c0,0,0,0,0,0c0.2,0,0.1,3.7,0,4.1c0,0.1-0.1,0.3,0.1,0.3  c5.3,0.6,10.6,1,15.8,1.5c1.4,0.1,2.8,0.3,4.1,0.3c3.1-0.1,6-0.8,8.8-2.1c0.4-0.2,0.8-0.3,1.2-0.6c0.5-0.4,0.3-0.8,0-1.3  c-0.5-0.7-1.1-1.5-1.3-2.4c0.9,1,1.8,2.1,2.9,3c1.7,1.4,3.8,2.3,6,2.3c3.7,0.1,7.4-0.2,11.1-0.5c1.7-0.1,3.5-0.1,5.2,0.1  c0.5,0.1,1.1,0.1,1.6,0.3c0.6,0.2,1.1,0.6,1.5,1.3c0,0,0,0,0,0c0,0,0,0,0,0c0,0,0,0,0,0.1c0,0.1,0,0.1,0,0.2c0,0.5,0,1.1-0.1,1.7  c0,0.1,0,0.2,0,0.4c0,0.2,0,0.5-0.1,0.7c0,0.1,0,0.1,0,0.2c0,0,0,0-0.1,0.1c-0.1,0.2-0.2,0.3-0.2,0.5c0,0.1-0.1,0.2-0.1,0.4  c-0.1,0.1-0.2,0.2-0.2,0.3c-0.1,0.2-0.2,0.4-0.3,0.6c-0.1,0.2-0.2,0.4-0.2,0.7c-0.2,0.5-0.2,1.1-0.3,1.5c0,0.3,0,0.6,0,0.9  c0,0,0,0.1,0,0.1c0,0.1,0,0.2,0,0.3c0,0,0,0,0,0c0,0.1,0,0.1,0,0.2c0,0,0,0.1,0,0.1c0,0.1,0,0.1,0,0.2c0.1,0.2,0.2,0.4,0.3,0.6  c0,0,0,0,0.1,0.1c0,0,0,0,0.1,0.1c0.2,0.3,0.5,0.5,0.8,0.7c0,0,0,0,0.1,0c0.4,0.4,0.8,0.6,1.2,0.8c0.9,0.2,1.7-0.4,2.4-1  c1.3-1.3,2.4-2.9,3.4-4.5c0.3-0.5,0.7-1.1,1-1.7c0.2-0.3,0.3-0.6,0.4-0.9c0.2-0.6,0.2-1.2,0.2-1.8c0,0,0,0,0,0c0,0,0-0.1,0-0.1  c0,0,0,0,0-0.1c-0.1-1-0.4-2.1-0.6-3c-0.5-1.7-1.2-3.3-1.7-5c-0.2-0.7-0.4-1.4-0.7-2c-0.9-1.6-2.7-1.6-4.4-1.6  c-3.1,0-6.2-0.2-9.3-0.4c-1-0.1-2.1-0.1-3.1-0.3c-0.5-0.1-1-0.2-1.5-0.5c-0.3-0.1-0.4-0.1-0.3-0.4c0.1-0.3,0.4-0.5,0.5-0.8  c1.4-2.3,2.2-4.7,2.4-7.4c0.2-2.8,0-5.7-0.2-8.5c-0.1-3.8,0-7.8,1.7-11.3c1-2,2.7-4.1,4.8-5c0.8-0.3,1.6-0.6,2.4-0.6  c0.9,0,1.3,0.3,2.2,0.5c0.6,0.1,1.3,0.3,1.9,0.4c0.5,0.1,1.1,0.2,1.7,0.1c1.9-0.1,3.5-1.4,4.4-3c0.6-1.1,1-2.4,1.2-3.7  c0.1-0.6,0.1-1.2,0.1-1.9C97.9,12.4,98.5,12.1,98.3,11.4z M85.1,10.6c-0.1,0.4-0.3,1-0.6,1.3c-0.4,0.5-1,0.9-1.8,0.9  c-0.3,0-0.3-0.2-0.3-0.4c0-0.5,0.1-1,0.3-1.5c0.1-0.4,0.3-0.7,0.6-1c0.3-0.3,0.7-0.4,1.1-0.2c0.3,0.1,0.6,0.3,0.6,0.6  c0,0,0,0.1,0,0.1C85.2,10.5,85.2,10.5,85.1,10.6z" style="" fill="currentColor"/></svg>