<svg xmlns="http://www.w3.org/2000/svg" xmlns:xlink="http://www.w3.org/1999/xlink" version="1.1" x="0px" y="0px" viewBox="0 0 100 100" enable-background="new 0 0 100 100" xml:space="preserve" style="max-width:100%" height="100%"><g style="" fill="currentColor"><path d="M91.3,52.3c-0.6,0-1.2-0.2-1.7-0.7L49.7,11.7L10.1,51.3c-0.9,0.9-2.5,0.9-3.4,0c-0.9-0.9-0.9-2.5,0-3.4L49.7,4.9L93,48.2   c0.9,0.9,0.9,2.5,0,3.4C92.5,52.1,91.9,52.3,91.3,52.3z" style="" fill="currentColor"/><path d="M78.6,95H55.4l2.3-31H42.2l2.3,31H21.3l-5-44.8l33.5-32.4l33.9,32.4L78.6,95z M60.6,90h13.7l4.2-38.1L49.8,24.4L21.3,51.9   L25.6,90h13.7L37,60h26L60.6,90z" style="" fill="currentColor"/><path d="M76.5,36.4c-1.3,0-2.5-1.1-2.5-2.4V14.8c0-1.3,1.2-2.4,2.5-2.4s2.5,1.1,2.5,2.4V34C79,35.4,77.8,36.4,76.5,36.4z" style="" fill="currentColor"/></g></svg>