<svg xmlns="http://www.w3.org/2000/svg" xmlns:xlink="http://www.w3.org/1999/xlink" version="1.1" x="0px" y="0px" viewBox="0 0 100 100" enable-background="new 0 0 100 100" xml:space="preserve" style="max-width:100%" height="100%"><g style="" fill="currentColor"><path d="M8.817,16.093L4.469,48.719c-0.756,2.785-0.832,5.732-0.192,8.63c1.043,4.732,3.865,8.773,7.948,11.379   c2.379,1.52,5.113,2.473,7.906,2.76c2.598,0.266,5.268-0.043,7.743-0.891l4.887-1.08c2.347-0.516,3.829-2.838,3.312-5.184   s-2.839-3.83-5.186-3.312l-5.144,1.135c-0.185,0.041-0.365,0.092-0.542,0.156c-1.333,0.482-2.781,0.662-4.188,0.518   c-1.468-0.148-2.849-0.633-4.105-1.436c-2.124-1.355-3.593-3.457-4.136-5.918s-0.094-4.987,1.262-7.111   c1.354-2.12,3.453-3.588,5.91-4.133l30.169-6.509c2.349-0.506,3.843-2.821,3.336-5.17c-0.273-1.264-1.069-2.28-2.114-2.87   c-0.895-0.507-1.972-0.699-3.057-0.465l-18.295,3.947L43.566,21.22c1.805-1.587,1.98-4.335,0.395-6.14   c-0.332-0.377-0.713-0.683-1.126-0.916c-1.566-0.885-3.587-0.733-5.015,0.522L24.711,26.215l4.836-10.741   c0.931-2.067,0.113-4.477-1.822-5.57c-0.115-0.066-0.236-0.127-0.359-0.183c-2.191-0.986-4.768-0.01-5.753,2.182l-4.913,10.914   l0.742-5.574c0.242-1.813-0.671-3.515-2.172-4.364c-0.47-0.266-0.998-0.447-1.565-0.523C11.323,12.038,9.134,13.711,8.817,16.093z" style="" fill="currentColor"/><path d="M51.533,80.969c-1.337-0.664-2.463-1.6-3.348-2.779c-0.847-1.129-1.44-2.461-1.715-3.852   c-0.037-0.186-0.084-0.369-0.145-0.547l-1.681-4.992c-0.766-2.277-3.234-3.502-5.511-2.734c-2.277,0.766-3.503,3.232-2.735,5.51   l1.597,4.744c0.549,2.557,1.662,5.006,3.229,7.092c1.684,2.246,3.91,4.098,6.439,5.352c4.338,2.156,9.256,2.49,13.848,0.945   c2.814-0.947,5.299-2.533,7.297-4.617l25.712-20.549c1.877-1.498,2.182-4.236,0.682-6.113c-0.357-0.447-0.785-0.807-1.256-1.072   c-1.501-0.848-3.43-0.754-4.858,0.391l-4.394,3.51l6.818-9.838c1.369-1.974,0.877-4.685-1.098-6.054   c-0.111-0.076-0.226-0.148-0.341-0.214c-1.936-1.093-4.421-0.552-5.712,1.312l-6.712,9.681l3.119-17.176   c0.34-1.871-0.572-3.679-2.139-4.564c-0.413-0.234-0.871-0.403-1.365-0.493c-2.363-0.429-4.628,1.14-5.057,3.504l-3.231,17.796   L62.927,37.5c-0.358-1.05-1.079-1.874-1.975-2.38c-1.044-0.59-2.325-0.749-3.55-0.331c-2.273,0.777-3.486,3.251-2.709,5.524   l9.979,29.205c0.801,2.385,0.625,4.941-0.494,7.195c-1.121,2.256-3.053,3.941-5.44,4.746C56.348,82.264,53.79,82.09,51.533,80.969z   " style="" fill="currentColor"/></g></svg>