<svg xmlns="http://www.w3.org/2000/svg" xmlns:xlink="http://www.w3.org/1999/xlink" version="1.1" x="0px" y="0px" viewBox="0 0 100 100" style="enable-background:new 0 0 100 100;max-width:100%" xml:space="preserve" height="100%"><path d="M86.2,57.2l-5-19.7C81.2,30.6,67.2,25,50,25c-17.2,0-31.1,5.6-31.1,12.5l-5,19.6c-2.5,1.6-3.9,3.4-3.9,5.4  C10,69.4,27.9,75,50,75s40-5.6,40-12.5C90,60.6,88.6,58.8,86.2,57.2z M29.1,55.1c-0.2,0-0.7-0.2-1.2-0.5c-1.5,1.9-3.2,3.6-5.1,5.1  c0.3,0.5,0.5,1,0.5,1.2c0,0.9-0.8,1.7-1.7,1.7c-0.9,0-1.7-0.8-1.7-1.7c0-0.3,0.1-0.6,0.3-1c-0.4,0.2-0.8,0.3-1,0.3  c-0.9,0-1.7-0.8-1.7-1.7c0-0.9,0.8-1.7,1.7-1.7c0.2,0,0.7,0.2,1.2,0.5c1.9-1.5,3.6-3.2,5.1-5.1c-0.3-0.5-0.5-1-0.5-1.2  c0-0.9,0.8-1.7,1.7-1.7c0.9,0,1.7,0.8,1.7,1.7c0,0.3-0.1,0.6-0.3,1c0.4-0.2,0.8-0.3,1-0.3c0.9,0,1.7,0.8,1.7,1.7  C30.8,54.4,30,55.1,29.1,55.1z M45.6,65.2c-0.3,0-0.6-0.1-1-0.3c0.2,0.4,0.3,0.8,0.3,1c0,0.9-0.8,1.7-1.7,1.7  c-0.9,0-1.7-0.8-1.7-1.7c0-0.2,0.2-0.7,0.5-1.2c-1.5-1.9-3.2-3.6-5.1-5.1c-0.5,0.3-1,0.5-1.2,0.5c-0.9,0-1.7-0.8-1.7-1.7  c0-0.9,0.8-1.7,1.7-1.7c0.3,0,0.6,0.1,1,0.3c-0.2-0.4-0.3-0.8-0.3-1c0-0.9,0.8-1.7,1.7-1.7c0.9,0,1.7,0.8,1.7,1.7  c0,0.2-0.2,0.7-0.5,1.2c1.9,1.5,3.6,3.2,5.1,5.1c0.5-0.3,1-0.5,1.2-0.5c0.9,0,1.7,0.8,1.7,1.7C47.3,64.4,46.5,65.2,45.6,65.2z   M28.9,44c-4.7-1.9-7.6-4.3-7.6-6.5s2.8-4.6,7.6-6.5c5.6-2.2,13.1-3.5,21.1-3.5c8,0,15.5,1.2,21.1,3.5c4.7,1.9,7.6,4.3,7.6,6.5  s-2.8,4.6-7.6,6.5C65.5,46.3,58,47.5,50,47.5C42,47.5,34.5,46.3,28.9,44z M64.5,60c-0.2,0-0.7-0.2-1.2-0.5c-1.5,1.9-3.2,3.6-5.1,5.1  c0.3,0.5,0.5,1,0.5,1.2c0,0.9-0.8,1.7-1.7,1.7c-0.9,0-1.7-0.8-1.7-1.7c0-0.3,0.1-0.6,0.3-1c-0.4,0.2-0.8,0.3-1,0.3  c-0.9,0-1.7-0.8-1.7-1.7c0-0.9,0.8-1.7,1.7-1.7c0.2,0,0.7,0.2,1.2,0.5c1.9-1.5,3.6-3.2,5.1-5.1c-0.3-0.5-0.5-1-0.5-1.2  c0-0.9,0.8-1.7,1.7-1.7c0.9,0,1.7,0.8,1.7,1.7c0,0.3-0.1,0.6-0.3,1c0.4-0.2,0.8-0.3,1-0.3c0.9,0,1.7,0.8,1.7,1.7  C66.1,59.3,65.4,60,64.5,60z M80.8,60.3c-0.3,0-0.6-0.1-1-0.3c0.2,0.4,0.3,0.8,0.3,1c0,0.9-0.8,1.7-1.7,1.7c-0.9,0-1.7-0.8-1.7-1.7  c0-0.2,0.2-0.7,0.5-1.2c-1.5-1.9-3.2-3.6-5.1-5.1c-0.5,0.3-1,0.5-1.2,0.5c-0.9,0-1.7-0.8-1.7-1.7c0-0.9,0.8-1.7,1.7-1.7  c0.3,0,0.6,0.1,1,0.3c-0.2-0.4-0.3-0.8-0.3-1c0-0.9,0.8-1.7,1.7-1.7c0.9,0,1.7,0.8,1.7,1.7c0,0.2-0.2,0.7-0.5,1.2  c1.9,1.5,3.6,3.2,5.1,5.1c0.5-0.3,1-0.5,1.2-0.5c0.9,0,1.7,0.8,1.7,1.7C82.5,59.5,81.8,60.3,80.8,60.3z" style="" fill="currentColor"/></svg>